<svg xmlns="http://www.w3.org/2000/svg" width="40" height="40" viewBox="0 0 40 40">
    <defs>
        <style>
            .cls-2{fill:#fff}
        </style>
    </defs>
    <g id="ico_chart_main_f" transform="translate(-338.963 -311.419)">
        <circle id="타원_7" cx="20" cy="20" r="20" fill="none" transform="translate(338.963 311.419)"/>
        <g id="그룹_127">
            <path id="패스_567" d="M353.7 329.306h-.024a.8.8 0 0 0-.489.184l-2.391 2.29a.793.793 0 0 0-.29.613v8.337a.8.8 0 0 0 .794.795h2.385a.8.8 0 0 0 .794-.794l.011-10.573v-.058a.793.793 0 0 0-.79-.794z" class="cls-2"/>
        </g>
        <g id="그룹_128">
            <path id="패스_568" d="M360.448 332.211L358 329.5a.794.794 0 0 0-.6-.273.777.777 0 0 0-.279.051.794.794 0 0 0-.515.746v10.711a.8.8 0 0 0 .794.792h2.452a.8.8 0 0 0 .8-.795v-8a.8.8 0 0 0-.204-.521z" class="cls-2"/>
        </g>
        <g id="그룹_129">
            <path id="패스_569" d="M366.39 329.42a.8.8 0 0 0-.85.121l-2.517 2.6a.8.8 0 0 0-.276.6v7.984a.8.8 0 0 0 .795.795h2.517a.8.8 0 0 0 .8-.795v-10.582a.794.794 0 0 0-.469-.723z" class="cls-2"/>
        </g>
        <g id="그룹_130">
            <path id="패스_570" d="M361.7 330.278h-.027a1 1 0 0 1-.722-.337l-4.733-5.359-5.394 5.07a1 1 0 0 1-1.37-1.457l6.145-5.776a1.018 1.018 0 0 1 .732-.271 1 1 0 0 1 .7.337l4.707 5.329 5.335-5.411a1 1 0 1 1 1.425 1.4l-6.088 6.173a1 1 0 0 1-.71.302z" class="cls-2"/>
        </g>
        <g id="그룹_131">
            <path id="패스_571" d="M368.58 326.89a1 1 0 0 1-1-1v-2.452h-2.452a1 1 0 1 1 0-2h3.452a1 1 0 0 1 1 1v3.452a1 1 0 0 1-1 1z" class="cls-2"/>
        </g>
    </g>
</svg>
