<svg xmlns="http://www.w3.org/2000/svg" width="40" height="40" viewBox="0 0 40 40">
    <defs>
        <style>
            .cls-2{fill:#fff}
        </style>
    </defs>
    <g id="ico_financial_main_f" transform="translate(-428.072 -311.419)">
        <circle id="타원_7" cx="20" cy="20" r="20" fill="none" transform="translate(428.072 311.419)"/>
        <g id="그룹_143">
            <g id="패스_558">
                <path id="패스_575" d="M456.511 342.026h-2.09a1.007 1.007 0 1 1 0-2.013h1.084v-17.184h-13.4v1.564a1.007 1.007 0 0 1-2.013 0v-2.571a1.007 1.007 0 0 1 1.007-1.006h15.412a1.007 1.007 0 0 1 1.007 1.006v19.2a1.007 1.007 0 0 1-1.007 1.004z" class="cls-2"/>
            </g>
            <g id="그룹_142">
                <g id="그룹_137">
                    <path id="패스_576" d="M445.6 334.6c-3.767 0-6.718-1.828-6.718-4.162s2.951-4.162 6.718-4.162 6.717 1.828 6.717 4.162-2.947 4.162-6.717 4.162zm0-6.311c-2.693 0-4.7 1.135-4.7 2.149s2.012 2.149 4.7 2.149 4.705-1.135 4.705-2.149-2.005-2.154-4.705-2.154z" class="cls-2"/>
                </g>
                <g id="그룹_138">
                    <path id="패스_577" d="M445.6 337.666c-3.767 0-6.718-1.828-6.718-4.162v-2.455a1.007 1.007 0 0 1 2.013 0v2.451c0 1.015 2.012 2.149 4.7 2.149s4.705-1.134 4.705-2.149v-2.133a1.006 1.006 0 1 1 2.012 0v2.133c.008 2.338-2.942 4.166-6.712 4.166z" class="cls-2"/>
                </g>
                <g id="그룹_139">
                    <path id="패스_578" d="M445.6 340.582c-3.767 0-6.718-1.829-6.718-4.163v-2.455a1.007 1.007 0 0 1 2.013 0v2.455c0 1.015 2.012 2.15 4.7 2.15s4.705-1.135 4.705-2.15v-2.132a1.006 1.006 0 1 1 2.012 0v2.132c.008 2.334-2.942 4.163-6.712 4.163z" class="cls-2"/>
                </g>
                <g id="그룹_140">
                    <path id="패스_579" d="M445.6 343.277c-3.767 0-6.718-1.829-6.718-4.163v-2.454a1.007 1.007 0 1 1 2.013 0v2.454c0 1.015 2.012 2.15 4.7 2.15s4.705-1.135 4.705-2.15v-2.132a1.006 1.006 0 1 1 2.012 0v2.132c.008 2.334-2.942 4.163-6.712 4.163z" class="cls-2"/>
                </g>
                <g id="그룹_141"/>
            </g>
        </g>
    </g>
</svg>
