<svg xmlns="http://www.w3.org/2000/svg" width="40" height="40" viewBox="0 0 40 40">
    <defs>
        <style>
            .cls-2{fill:#fff}
        </style>
    </defs>
    <g id="ico_realestate_main_f" transform="translate(-383.517 -311.419)">
        <circle id="타원_7" cx="20" cy="20" r="20" fill="none" transform="translate(383.517 311.419)"/>
        <g id="그룹_135">
            <g id="그룹_133">
                <path id="패스_572" d="M393.354 331.649a1.007 1.007 0 0 1-.711-1.719l10.163-10.163a1.007 1.007 0 0 1 .712-.3 1 1 0 0 1 .711.3l10.163 10.163a1.007 1.007 0 0 1-1.423 1.424l-9.451-9.452-9.452 9.452a1.007 1.007 0 0 1-.712.295z" class="cls-2"/>
            </g>
            <g id="패스_558">
                <path id="패스_573" d="M411.559 342.026h-16.083a1.007 1.007 0 0 1-1.007-1.007v-8.327a1.007 1.007 0 0 1 2.013 0v7.321h14.07v-7.321a1.007 1.007 0 0 1 2.013 0v8.327a1.006 1.006 0 0 1-1.006 1.007z" class="cls-2"/>
            </g>
            <g id="그룹_134">
                <path id="패스_574" d="M405.6 335.781h-4.163a1.006 1.006 0 0 1-1.006-1.007v-4.164a1 1 0 0 1 1.006-1.006h4.163a1.006 1.006 0 0 1 1.007 1.006v4.164a1.007 1.007 0 0 1-1.007 1.007zm-3.157-2.013h2.151v-2.152h-2.151z" class="cls-2"/>
            </g>
        </g>
    </g>
</svg>
